<?xml version="1.0" encoding="UTF-8"?>
<svg id="Layer_2" data-name="Layer 2" xmlns="http://www.w3.org/2000/svg" viewBox="0 0 140.17 140.04">
  <defs>
    <style>
      .cls-1 {
        fill: #360ea7;
      }
    </style>
  </defs>
  <g id="Layer_1-2" data-name="Layer 1">
    <g>
      <path class="cls-1" d="M110.27,114.9l5.89,7.27c.08.1.07.18-.03.26l-2.98,2.42c-.52.42-1.06.6-1.62.52-.56-.07-1.06-.38-1.5-.93l-4.57-5.64c-.08-.09-.07-.18.03-.26l4.53-3.67c.1-.08.18-.07.26.03ZM107.14,118.92l3.66,4.52c.23.29.51.46.82.51s.61-.04.91-.28l1.96-1.58-4.45-5.5-2.88,2.34Z"/>
      <path class="cls-1" d="M99.72,122.47l3.49,5.7c.27.44.57.71.9.81.33.1.68.03,1.07-.21l2.82-1.73c.11-.07.21-.05.28.07l.49.79c.06.1.04.19-.08.26l-2.91,1.79c-.69.42-1.34.55-1.94.38-.61-.17-1.14-.62-1.6-1.37l-3.58-5.84c-.06-.11-.04-.19.07-.26l.74-.45c.1-.06.19-.04.25.06Z"/>
      <path class="cls-1" d="M90.04,127.02l.27.91c.04.13,0,.21-.12.25l-1.38.4.65.85,1.49,5.04-.23.92,1.29-.38c.12-.03.2.01.23.14l.26.89c.04.12,0,.19-.12.23l-5.59,1.63c-.23.07-.43.06-.59-.03-.16-.09-.27-.25-.34-.47l-2.47-8.45c-.03-.12.01-.2.14-.24l.83-.24c.12-.03.19,0,.23.13l2.31,7.9,3.11-.91-1.58-5.42-.6-1.41c-.04-.1-.07-.23-.07-.38l-.03-.69c-.01-.13.04-.21.16-.24l1.94-.57c.12-.03.19,0,.23.13Z"/>
      <path class="cls-1" d="M81.58,128.28l.12.92c.02.12-.03.21-.15.27l-2.78,1.31c-.42.19-.73.38-.95.59-.22.2-.37.48-.46.84-.09.36-.09.84,0,1.45l.86,5.65c.02.12-.04.19-.17.21l-.84.13c-.13.02-.21-.03-.23-.15l-.86-5.65c-.18-1.15-.07-2.04.32-2.66.39-.62.99-1.13,1.8-1.51l3.13-1.51c.12-.04.18,0,.19.12ZM80.3,131.14c.2.56.42,1.14.65,1.71l.12.28,2.16,5.42c.04.12,0,.19-.12.21l-.89.14c-.13.02-.22-.03-.26-.15l-1.88-4.78c-.26-.67-.5-1.32-.7-1.93-.21-.61-.35-1.14-.45-1.59l1.01-.6c.05.31.17.74.37,1.3Z"/>
      <path class="cls-1" d="M73.88,130.41l.02.95c0,.14-.06.21-.2.21l-4.08.08.13,7.07,4.08-.08c.13,0,.2.06.21.2l.02.93c0,.12-.06.19-.2.19l-4.59.09c-.25,0-.43-.05-.55-.18-.12-.12-.19-.31-.19-.55l-.13-7.13.38-.53-1.21.02c-.12,0-.19-.06-.19-.2l-.02-.95c0-.12.06-.19.18-.19l6.16-.12c.13,0,.2.06.21.18Z"/>
      <path class="cls-1" d="M65.39,130.27l-.12,1.05c-.01.14-.09.22-.21.26-.56.15-1.08.44-1.55.89-.48.44-.94.98-1.4,1.61l-.13.21c-.16.23-.27.43-.32.6s-.09.39-.12.68l-.3,2.64,2.17.25c.12.01.17.09.16.22l-.11.92c-.01.12-.08.18-.2.16l-3.21-.37c-.13-.02-.19-.09-.18-.21l.48-4.15c.11-.92.13-1.79.08-2.61-.05-.82-.16-1.69-.31-2.63,0-.12.05-.18.17-.17l.91.1c.13.02.21.09.23.21.07.39.11.94.12,1.63.01.69,0,1.29-.03,1.8h.05c.09-.11.17-.23.25-.36.6-.95,1.17-1.69,1.69-2.2.52-.51,1.1-.76,1.72-.75.13.02.19.08.18.21Z"/>
      <path class="cls-1" d="M57.77,129.43l-.23.92c-.03.13-.12.18-.25.15l-3.96-1-1.73,6.86,3.96,1c.13.03.18.12.15.25l-.23.9c-.03.12-.11.16-.24.13l-4.45-1.13c-.24-.06-.4-.17-.49-.32-.09-.15-.1-.34-.04-.58l1.75-6.91.5-.41-1.18-.3c-.12-.03-.16-.11-.13-.24l.23-.92c.03-.12.1-.17.22-.13l5.97,1.51c.13.03.18.11.15.23Z"/>
      <path class="cls-1" d="M38.72,125.91s-.02.08-.07.12l-3.15,2.82-.37.65,2.24,1.27c.12.07.14.16.07.28l-.46.81c-.06.11-.15.13-.27.06l-2.68-1.53c-.21-.12-.34-.27-.39-.43-.04-.17,0-.36.12-.57l.6-1.05c.06-.11.14-.21.24-.31l2.95-2.62c.1-.08.21-.09.32-.03l.77.44c.05.03.08.07.09.1Z"/>
      <path class="cls-1" d="M34.64,119.45l-.58.75c-.08.11-.18.12-.28.04l-2-1.53-4.31,5.61,1.71,1.31c.11.08.12.18.04.29l-.56.74c-.08.1-.17.11-.27.02l-2.55-1.96c-.1-.07-.11-.16-.03-.26l5.7-7.42c.08-.1.16-.11.26-.04l2.84,2.18c.11.08.12.17.05.27Z"/>
      <path class="cls-1" d="M28.23,114.93c-.04.77-.51,1.6-1.41,2.5l-4.3,4.26c-.09.09-.18.08-.27-.01l-.59-.6c-.1-.1-.1-.19-.01-.27l4.3-4.26c.6-.59.92-1.12.98-1.57.06-.45-.12-.88-.52-1.29-.51-.51-1.13-.7-1.86-.56s-1.51.61-2.33,1.42l-1.48,1.46c-.44.43-.7.82-.78,1.16s.03.65.32.95c.16.17.35.3.57.4.22.1.48.16.79.18.14,0,.16.05.06.14l-.59.59c-.1.1-.21.14-.33.15-.28,0-.54-.05-.78-.16-.24-.11-.48-.29-.72-.53-.52-.52-.74-1.1-.66-1.72.08-.63.46-1.29,1.16-1.97l1.54-1.53c.67-.66,1.37-1.15,2.1-1.45.73-.31,1.44-.41,2.11-.32.67.09,1.26.39,1.76.89.66.66.96,1.38.93,2.15Z"/>
      <path class="cls-1" d="M21.79,106.95l-6.56,4.96,1.24,1.64c.07.1.06.19-.05.27l-.74.56c-.1.07-.19.06-.26-.04l-1.89-2.49c-.07-.1-.06-.18.04-.26l7.46-5.64c.1-.08.19-.06.26.03l.52.69c.08.11.07.2-.03.27Z"/>
      <path class="cls-1" d="M18.8,102.82l-.83.46c-.12.07-.21.04-.28-.08l-2-3.56-6.17,3.47,2,3.56c.07.12.04.21-.08.28l-.81.46c-.11.06-.2.03-.26-.08l-2.25-4.01c-.12-.21-.16-.4-.11-.57s.18-.31.4-.43l6.21-3.49.64.08-.59-1.06c-.06-.11-.03-.19.09-.26l.83-.46c.11-.06.19-.04.25.07l3.02,5.37c.07.12.05.21-.06.27Z"/>
      <path class="cls-1" d="M13.07,91.02l-7.65,3.02,1.71,4.33c.05.11,0,.2-.12.25l-.86.34c-.11.05-.19.01-.24-.1l-1.89-4.79c-.09-.23-.1-.42-.03-.58.07-.16.22-.29.45-.38l8.19-3.23c.12-.04.2-.01.24.1l.32.8c.04.11.01.19-.1.24ZM14.83,95.49l-5.39,2.13c-.13.05-.21.02-.26-.1l-.32-.8c-.04-.11,0-.2.12-.25l5.39-2.13c.12-.04.2-.01.24.1l.32.8c.04.11,0,.19-.11.24Z"/>
      <path class="cls-1" d="M12.63,76.93l-10.19,1.08-.66-.37h-.09s.27,2.57.27,2.57c.01.12-.05.19-.18.2l-.92.1c-.12.01-.19-.04-.2-.16l-.38-3.58c-.01-.12.04-.19.17-.2l1.02-.11.62.34,10.43-1.11c.14-.01.21.04.22.18l.09.84c.01.13-.05.21-.18.22Z"/>
      <path class="cls-1" d="M9.64,71.87l-1.06-.03c-.14,0-.23-.07-.27-.19-.2-.54-.53-1.03-1.02-1.47-.48-.44-1.06-.85-1.73-1.25l-.22-.12c-.24-.14-.45-.23-.62-.27-.17-.03-.4-.06-.69-.06l-2.65-.07-.06,2.19c0,.12-.07.18-.21.18l-.93-.03c-.12,0-.18-.07-.18-.19l.09-3.23c0-.13.07-.2.19-.2l4.18.12c.93.03,1.8-.02,2.6-.15.81-.13,1.67-.3,2.6-.54.13-.02.19.03.18.15l-.03.92c0,.13-.07.22-.19.25-.39.1-.92.19-1.61.26-.69.07-1.29.11-1.8.12v.06c.12.08.25.15.38.21,1,.52,1.78,1.01,2.34,1.49.56.48.86,1.03.9,1.65,0,.13-.07.2-.19.2Z"/>
      <path class="cls-1" d="M10.64,59.18l-8.12-1.31-.74,4.59c-.02.12-.1.17-.23.15l-.92-.15c-.12-.02-.17-.09-.15-.21l.82-5.08c.04-.24.13-.41.27-.51.14-.1.33-.13.58-.09l8.69,1.41c.12.02.17.09.15.21l-.14.85c-.02.12-.09.17-.21.15ZM9.87,63.92l-5.72-.92c-.13-.02-.19-.09-.17-.21l.14-.85c.02-.12.1-.17.23-.15l5.72.93c.12.02.17.09.15.21l-.14.85c-.02.12-.09.17-.21.15Z"/>
      <path class="cls-1" d="M48.52,13.92s-.04-.06-.03-.12l.59-4.79c.06-.42.07-.75.05-1.01s-.1-.55-.22-.89l-.73-1.99-4,1.47c-.12.04-.2,0-.24-.13l-1.04-2.82c-.05-.13-.01-.21.1-.25l.81-.3c.12-.04.2,0,.24.13l.65,1.78,3.5-1.29c.23-.08.42-.09.58-.02.16.07.28.23.36.46l.91,2.47c.15.39.23.77.26,1.14.03.37.01.78-.05,1.24l-.52,4.33c0,.12-.07.21-.2.25l-.9.33c-.06.02-.1.02-.13,0Z"/>
      <path class="cls-1" d="M59.5,10.63c-.97-1.47-2.08-2.86-3.35-4.18-1.26-1.32-2.69-2.57-4.29-3.76-.05-.04-.07-.07-.06-.1,0-.03.04-.05.1-.06l1.17-.26c.11-.02.22,0,.34.08,1.58,1.35,2.99,2.68,4.21,4.01,1.23,1.33,2.27,2.66,3.13,3.99.04.04.04.08.03.12-.02.04-.06.06-.12.07l-.88.2c-.12.03-.22,0-.29-.11ZM54.31,11.77l-.53-2.35c-.15-.67-.2-1.31-.16-1.94.04-.63.2-1.24.47-1.83l.56-1.21.74.61-.35,1.2c-.17.48-.25.93-.25,1.36,0,.42.07.94.2,1.54l.53,2.36c.03.12-.02.19-.14.22l-.84.19c-.12.03-.19-.02-.22-.14ZM57.24,6.68l.23-.89c.16-.4.24-.85.23-1.33,0-.48-.09-1.06-.24-1.74l-.27-1.2c-.03-.12.03-.2.16-.22l.83-.18c.13-.03.21.02.24.14l.27,1.2c.16.71.22,1.4.2,2.07-.03.67-.18,1.3-.46,1.89l-.46.96-.72-.7Z"/>
      <path class="cls-1" d="M67.19,9.69l-.58-6.66c-.05-.52-.19-.89-.44-1.13-.25-.23-.6-.33-1.05-.29l-3.3.29c-.13.01-.21-.05-.22-.19l-.08-.92c-.01-.12.05-.19.19-.2l3.41-.3c.81-.07,1.44.1,1.91.52.47.42.74,1.07.81,1.94l.6,6.83c.01.12-.05.19-.19.2l-.86.07c-.12.01-.19-.04-.2-.17Z"/>
      <path class="cls-1" d="M70.82,8.97c-.57-.68-.83-1.63-.77-2.84l.27-5.95c0-.12.07-.18.19-.18l.84.04c.13,0,.2.07.19.2l-.28,6.12c-.03.77.13,1.35.49,1.76.36.41.88.63,1.55.67.81.02,1.45-.29,1.92-.95.47-.66.73-1.55.78-2.68l.21-4.71c0-.12.07-.18.19-.18l.83.04c.13,0,.2.07.19.19l-.22,4.71c-.04.93-.22,1.76-.55,2.51s-.78,1.33-1.36,1.76c-.58.43-1.27.62-2.07.58-1.05-.05-1.86-.41-2.43-1.1ZM72.02,6.68s-.04-.08-.04-.14l.03-.59c0-.12.06-.22.16-.29.39-.17.66-.43.81-.8.15-.37.24-.92.28-1.66l.13-2.87c0-.12.07-.18.19-.18l.84.04c.13,0,.2.07.19.2l-.13,2.88c-.05,1-.27,1.8-.66,2.4-.4.6-.95.95-1.67,1.06-.06,0-.11,0-.14-.03Z"/>
      <path class="cls-1" d="M81.26,7.17s0-.08.02-.14l2.03-3.71.13-.73-2.53-.46c-.13-.03-.19-.1-.16-.24l.17-.91c.02-.12.1-.17.23-.15l3.04.55c.24.04.41.14.51.28.1.14.13.34.08.58l-.21,1.19c-.02.12-.06.25-.12.37l-1.91,3.45c-.07.11-.17.16-.29.14l-.87-.16c-.06-.01-.1-.03-.12-.07Z"/>
      <path class="cls-1" d="M95.6,15.14s.02-.07.06-.1l3.84-2.91c.34-.25.59-.47.76-.67.17-.19.33-.45.49-.78l.92-1.91-3.84-1.85c-.11-.05-.14-.14-.08-.26l1.3-2.71c.06-.12.14-.16.25-.1l.78.38c.11.05.14.14.08.26l-.82,1.71,3.36,1.62c.22.11.36.24.42.41.06.17.03.36-.08.58l-1.14,2.38c-.18.38-.39.71-.63.98-.24.28-.55.55-.92.82l-3.47,2.64c-.09.08-.2.09-.32.03l-.86-.41c-.06-.03-.08-.06-.09-.09Z"/>
      <path class="cls-1" d="M101.88,17.55c-.14-.88.13-1.82.79-2.84l3.28-4.97c.07-.1.15-.12.26-.05l.71.47c.11.07.13.16.07.27l-3.38,5.11c-.42.64-.58,1.23-.48,1.76.1.54.43.99.99,1.38.68.44,1.39.49,2.14.17.74-.33,1.43-.96,2.05-1.9l2.6-3.93c.07-.1.15-.12.26-.05l.69.46c.11.07.14.16.07.27l-2.6,3.94c-.51.77-1.1,1.4-1.76,1.88-.66.48-1.35.75-2.07.81-.72.07-1.41-.12-2.08-.56-.88-.58-1.39-1.31-1.53-2.19ZM104.09,16.2s0-.09.04-.14l.33-.5c.07-.1.16-.16.29-.17.42.05.79-.04,1.1-.27.32-.24.68-.66,1.09-1.28l1.59-2.4c.07-.1.15-.12.26-.05l.71.47c.11.07.13.16.07.27l-1.59,2.4c-.55.84-1.15,1.41-1.8,1.73-.65.31-1.31.33-1.97.05-.06-.02-.09-.06-.1-.1Z"/>
      <path class="cls-1" d="M117.07,31.51l5.08-4.34c.4-.34.62-.67.66-1.01.05-.34-.08-.68-.37-1.02l-2.15-2.52c-.09-.1-.08-.2.02-.29l.71-.6c.09-.08.18-.07.27.03l2.22,2.6c.52.62.75,1.23.68,1.86-.07.62-.44,1.22-1.11,1.79l-5.21,4.45c-.09.08-.18.07-.27-.03l-.56-.66c-.08-.09-.07-.18.02-.26Z"/>
      <path class="cls-1" d="M118.98,33.84l.79-.52c.11-.08.21-.06.28.06l2.24,3.41,5.91-3.89-2.24-3.41c-.07-.11-.05-.21.06-.28l.78-.51c.1-.07.19-.05.27.07l2.53,3.84c.13.21.18.39.15.56-.04.17-.16.32-.36.46l-5.95,3.92-.65-.04.67,1.01c.07.1.04.19-.07.27l-.79.52c-.1.07-.19.05-.26-.05l-3.39-5.14c-.07-.11-.06-.2.04-.27Z"/>
      <path class="cls-1" d="M123.43,40.86l5.22-2.5c.12-.06.21-.03.26.08l.37.78c.05.11.02.2-.1.25l-5.23,2.5c-.11.05-.19.02-.25-.08l-.37-.78c-.05-.11-.02-.19.09-.25ZM125.51,45.19l7.42-3.55-2.01-4.19c-.05-.11-.02-.2.11-.25l.84-.4c.11-.05.19-.03.25.09l2.22,4.64c.11.22.13.41.07.58s-.2.3-.42.41l-7.94,3.8c-.11.05-.19.03-.25-.09l-.37-.78c-.05-.11-.02-.19.09-.25Z"/>
      <path class="cls-1" d="M132.79,57.53s.07-.04.14-.02l4.18.62.73-.13-.45-2.53c-.02-.13.03-.21.17-.23l.91-.16c.12-.02.19.03.22.17l.54,3.04c.04.24.01.43-.09.58-.1.14-.27.23-.52.28l-1.19.21c-.12.02-.25.03-.39.01l-3.9-.6c-.13-.03-.21-.1-.23-.22l-.15-.87c-.01-.06,0-.11.02-.13Z"/>
      <path class="cls-1" d="M129.35,63.86l.93-.02c.12,0,.21.05.25.17l.99,2.9c.14.44.3.77.48,1.01.18.24.44.42.78.55.35.13.83.18,1.45.15l5.71-.24c.12,0,.19.06.19.19l.03.84c0,.13-.05.21-.18.21l-5.71.24c-1.16.05-2.03-.16-2.61-.61-.58-.46-1.01-1.11-1.31-1.95l-1.16-3.28c-.03-.12.02-.18.14-.17ZM132.05,65.44c.58-.13,1.17-.29,1.77-.46l.29-.09,5.62-1.56c.12-.03.19.02.19.14l.04.9c0,.13-.05.22-.18.25l-4.96,1.35c-.7.19-1.36.35-2,.49-.63.14-1.18.23-1.63.27l-.49-1.07c.31-.01.76-.08,1.34-.22Z"/>
      <path class="cls-1" d="M130.14,76.83l6.66.61c.52.05.91-.03,1.19-.23.27-.2.43-.53.47-.98l.3-3.29c.01-.13.09-.2.22-.18l.92.09c.12.01.18.08.17.22l-.31,3.4c-.07.8-.36,1.4-.85,1.79-.5.38-1.18.54-2.06.46l-6.82-.63c-.12-.01-.18-.08-.17-.22l.08-.86c.01-.12.08-.18.2-.17Z"/>
      <path class="cls-1" d="M129.16,82.46l3.18.08c.76.02,1.41.1,1.95.22.54.12,1.02.32,1.42.58.4.26.75.6,1.03,1.02l.27.34h.08s.51-2.22.51-2.22c.03-.12.11-.16.24-.13l.9.21c.12.03.17.1.14.22l-1.1,4.82c-.03.12-.1.17-.22.14l-.9-.21c-.13-.03-.19-.11-.16-.22l.33-1.45-.29-.39c-.3-.41-.62-.72-.95-.93-.33-.21-.75-.38-1.26-.5-.57-.13-1.33-.2-2.27-.22l-3.19-.03c-.13,0-.18-.07-.15-.18l.22-.95c.03-.13.11-.2.23-.19Z"/>
    </g>
  </g>
</svg>