<?xml version="1.0" encoding="UTF-8"?>
<svg id="Layer_2" xmlns="http://www.w3.org/2000/svg" version="1.1" viewBox="0 0 415.4 486.5">
  <!-- Generator: Adobe Illustrator 30.5.1, SVG Export Plug-In . SVG Version: 2.1.4 Build 3)  -->
  <defs>
    <style>
      .st0 {
        fill: #360ea7;
      }
    </style>
  </defs>
  <g id="Layer_1-2">
    <g>
      <g>
        <path class="st0" d="M292.5,0l7.5,80.3s-2.4,33.7-38.2,48.8c-39.6,16.7-46.4,54-46.4,54v-81.6s-.4-38.3,34.4-52.3C284.2,35.4,292.5,0,292.5,0Z"/>
        <path class="st0" d="M356.9,92.3v79.9s-15.5,33.5-64.1,40.9c-34.8,5.3-52.9,32-51.1,60.4,2.2,35.5,31.5,57.6,31.5,57.6,0,0-15.2-69.2,23-97.3,35.6-26.2,91.1.9,119.2-49.6,0,0-1.1,47.4-2.7,56.8-1.1,6.4-6.4,33.7-38.8,46.5-20,7.9-42.7,0-61.5,11-20,11.7-21.4,41.4,1,57.4,16.6,11.9,86.6,13,86.6,13l-1.1,56.3s-133.6-4.3-166.6-106l-3.6,167.2h-18l4.5-279.5s12.5-62,74.8-70.8c50.8-7.1,66.8-43.9,66.8-43.9h.1Z"/>
      </g>
      <g>
        <path class="st0" d="M122.9,0l-7.5,80.3s2.4,33.7,38.2,48.8c39.6,16.7,46.4,54,46.4,54v-81.6s.4-38.3-34.4-52.3C131.2,35.4,122.9,0,122.9,0Z"/>
        <path class="st0" d="M58.5,92.3v79.9s15.5,33.5,64.1,40.9c34.8,5.3,52.9,32,51.1,60.4-2.2,35.5-31.5,57.6-31.5,57.6,0,0,15.2-69.2-23-97.3-35.6-26.1-91.1,1-119.2-49.5,0,0,1.1,47.4,2.7,56.8,1.1,6.4,6.4,33.7,38.8,46.5,20,7.9,42.7,0,61.5,11,20,11.7,21.4,41.4-1.1,57.4-16.6,11.9-86.6,13-86.6,13l1.1,56.3s133.6-4.3,166.6-106l3.6,167.2h18l-4.5-279.5s-12.5-62-74.8-70.8c-50.8-7.1-66.8-43.9-66.8-43.9h0Z"/>
      </g>
    </g>
  </g>
</svg>