<?xml version="1.0" encoding="UTF-8"?>
<svg id="Layer_1" xmlns="http://www.w3.org/2000/svg" version="1.1" viewBox="0 0 229 230.3">
  <!-- Generator: Adobe Illustrator 30.6.0, SVG Export Plug-In . SVG Version: 2.1.4 Build 109)  -->
  <defs>
    <style>
      .st0 {
        fill: none;
      }

      .st1 {
        fill: #360ea7;
      }
    </style>
  </defs>
  <g>
    <circle class="st0" cx="111.5" cy="118.5" r="111.5"/>
    <path class="st1" d="M31.2,53.2c.8-.1,1.6.1,2.3.6s1,1.2,1.1,2.1,0,1.6-.6,2.3-1.2,1.1-2.1,1.2c-.9.1-1.6,0-2.3-.6-.7-.5-1.1-1.2-1.2-2.1s.1-1.6.6-2.3,1.2-1.1,2.1-1.2h.1Z"/>
    <path class="st1" d="M2.4,96.3l16.4,2.5c.2,0,.3.2.3.4l-1,6.8c-.2,1.2-.7,2.1-1.5,2.7-.8.6-1.8.8-3.1.6l-12.8-2c-.2,0-.3-.2-.3-.4l1.6-10.3c0-.2.2-.3.4-.3h0ZM3.1,105.4l10.2,1.6c.7.1,1.2,0,1.7-.3s.8-.8.8-1.4l.7-4.5-12.4-1.9-1,6.6h0Z"/>
    <path class="st1" d="M.3,121.6h11.9c.9-.1,1.6-.3,2.1-.7s.7-1,.7-1.8v-5c0-.2,0-.4.3-.4h1.7c.2,0,.3.1.3.4v5.2c0,1.5-.3,2.6-1.1,3.3-.8.8-2,1.2-3.6,1.2H.4c-.2.1-.3,0-.3-.2v-1.5c0-.2,0-.4.3-.4h0Z"/>
    <path class="st1" d="M2.1,139.8l1.6-.4c.2,0,.4,0,.4.2l.7,2.7,1.5-1.2,9-2.4,1.6.5-.7-2.5c0-.2,0-.4.3-.4l1.6-.4c.2,0,.3,0,.4.2l2.9,11c.1.4,0,.8,0,1.1-.2.3-.4.5-.8.6l-15.1,4c-.2,0-.3,0-.4-.2l-.4-1.5c0-.2,0-.4.2-.4l14.1-3.8-1.7-6.3-9.7,2.6-2.5,1s-.4.1-.7.1h-1.2c-.2,0-.4-.1-.4-.3l-1-3.7c0-.2,0-.4.2-.4h.1Z"/>
    <path class="st1" d="M6.5,160.7l1.5-.7c.2,0,.4,0,.5.1l3.6,4.1c.5.6,1,1.1,1.5,1.4.4.3,1,.4,1.7.4s1.5-.3,2.5-.7l9.2-4.3c.2,0,.3,0,.4.2l.6,1.4c0,.2,0,.4-.2.4l-9.2,4.3c-1.9.9-3.4,1.1-4.7.8-1.2-.4-2.4-1.1-3.5-2.3l-4.1-4.6v-.4h.2ZM12.1,161.7c.9-.6,1.8-1.3,2.7-2l.3-.3,8.2-6.4c.2-.1.3-.1.4.1l.7,1.5c0,.2,0,.4-.1.5l-7.2,5.6c-1,.7-1.9,1.4-2.9,2.1s-1.8,1.2-2.6,1.6l-1.5-1.4c.5-.2,1.2-.7,2.1-1.3h0Z"/>
    <path class="st1" d="M15.9,175.7l1.4-.9c.2-.1.4-.1.5.1l4,5.9,10.4-7-4-5.9c-.1-.2,0-.4,0-.5l1.4-.9c.2-.1.3,0,.5.1l4.5,6.7c.2.4.3.7.3,1s-.3.6-.6.8l-10.5,7h-1.2l1.3,1.9c.1.2,0,.3-.1.5l-1.4.9c-.2.1-.3,0-.5,0l-6.2-9.2c-.1-.2-.1-.4,0-.5h.2Z"/>
    <path class="st1" d="M25.1,189.2l1.4-1.3c.2-.2.4-.2.6,0,.9.5,2,.7,3.1.7s2.4-.2,3.8-.5h.4c.5-.2.9-.4,1.1-.5.3-.2.6-.4,1-.8l3.5-3.1-2.6-2.9c-.2-.2-.2-.4,0-.5l1.2-1.1c.2-.1.3-.1.5,0l3.9,4.3c.2.2,0,.3,0,.5l-5.5,5c-1.2,1.1-2.3,2.2-3.2,3.4-.9,1.1-1.8,2.4-2.7,3.9-.1.2-.2.2-.4,0l-1.1-1.2c-.2-.2-.2-.3,0-.5.4-.6.9-1.4,1.7-2.3.8-1,1.5-1.7,2.2-2.4h0c-.2,0-.5,0-.8.1-1.9.5-3.6.9-4.8.9s-2.4-.3-3.2-1c-.2-.2-.1-.3,0-.5h0v-.2h-.1Z"/>
    <path class="st1" d="M35.3,199.8l1.1-1.3c.2-.2.3-.2.5,0l5.4,4.6,8.1-9.6-5.4-4.6c-.2-.1-.2-.3,0-.5l1.1-1.3c0-.2.3-.2.5,0l6.1,5.2c.3.3.5.6.6.9,0,.3,0,.6-.4,1l-8.2,9.7-1.1.3,1.8,1.5c.2.1.2.3,0,.5l-1.1,1.3c0,.2-.3.2-.5,0l-8.4-7.1c-.2-.2-.2-.3,0-.5h0Z"/>
    <path class="st1" d="M60.3,210.6v-.2l5.3-5.2.6-1.2-3.3-1.8c-.2-.1-.2-.3,0-.5l.8-1.5c0-.2.2-.2.4-.1l4.1,2.2c.4.2.6.5.7.8s0,.6-.2,1l-1,1.9c0,.2-.2.4-.4.6l-5,4.9c-.2.2-.3.2-.6,0l-1.4-.7s-.2-.1-.2-.2h.3,0Z"/>
    <path class="st1" d="M66.7,220.4l.6-1.6c0-.2.2-.3.5-.2l3.9,1.6,4.7-11.7-3.5-1.4c-.2,0-.3-.2-.2-.5l.6-1.5c0-.2.2-.3.4-.2l5.3,2.1c.2,0,.3.2.2.4l-6.2,15.4c0,.2-.2.3-.4.2l-5.7-2.3c-.2,0-.3-.2-.2-.4h0Z"/>
    <path class="st1" d="M82.3,225c-.7-1.2-.8-2.9-.2-5.1l2.5-10.5c0-.2.2-.3.4-.2l1.5.4c.2,0,.3.2.3.4l-2.5,10.5c-.3,1.5-.3,2.5,0,3.3.4.7,1,1.2,2,1.5,1.2.3,2.4,0,3.4-.9s1.7-2.3,2.2-4.3l.8-3.6c.2-1.1.3-1.9,0-2.5-.2-.6-.7-1-1.4-1.1-.4,0-.8-.1-1.2,0s-.9.2-1.4.5c-.2.1-.3,0-.2-.2l.3-1.5c0-.2.2-.4.4-.5.4-.2.8-.4,1.3-.5s1,0,1.6.1c1.3.3,2.2,1,2.6,2,.5,1,.5,2.4,0,4.1l-.9,3.8c-.4,1.6-1,3-1.8,4.2-.8,1.1-1.8,2-2.9,2.5s-2.3.6-3.5.3c-1.6-.4-2.8-1.2-3.5-2.4h0v-.3h.2Z"/>
    <path class="st1" d="M100.7,229.3l1.4-14.6-2.8-.3c-.2,0-.3-.1-.3-.4v-1.6c.2-.2.3-.3.5-.3l4.6.4c.2,0,.3.1.3.4l-1.5,16.6c0,.2,0,.3-.4.3h-1.5c-.2-.2-.3-.3-.3-.5h0Z"/>
    <path class="st1" d="M109.3,229.9v-1.7c0-.2,0-.4.3-.4l7.1-.2-.4-12.6-7.1.2c-.2,0-.4-.1-.4-.4v-1.6c0-.2,0-.3.3-.3l8-.3c.4,0,.8,0,1,.3s.4.5.4,1l.4,12.7-.7,1h2.4c.2,0,.3,0,.3.3v1.7c0,.2,0,.3-.3.3l-11.1.4c-.2,0-.4-.1-.4-.3h.2,0Z"/>
    <path class="st1" d="M135.7,227.2l-2.8-14.4-8.2,1.6c-.2,0-.4,0-.4-.3l-.3-1.6c0-.2,0-.3.3-.4l9.1-1.8c.4,0,.8,0,1,.1.3.2.4.5.5.9l3,15.4c0,.2,0,.4-.3.4l-1.5.3c-.2,0-.4,0-.4-.3h0ZM127.3,228.8l-2-10.1c0-.2,0-.4.2-.4l1.5-.3c.2,0,.4,0,.4.3l2,10.1c0,.2,0,.4-.3.4l-1.5.3c-.2,0-.3,0-.4-.3h.1Z"/>
    <path class="st1" d="M158.1,224.9l-7.2-16.3.4-1.7h0c0-.1-3.7,1.5-3.7,1.5-.2,0-.4,0-.4-.2l-.7-1.5c0-.2,0-.4.2-.4l5.4-2.4c.2,0,.4,0,.4.2l.7,1.7-.3,1.8,7.3,16.6c.1.2,0,.4-.2.5l-1.4.6c-.2,0-.4,0-.4-.2h0v-.2h-.1Z"/>
    <path class="st1" d="M164.1,217l-1-1.6c-.1-.2-.1-.4,0-.6.6-.8,1.1-1.8,1.3-2.9s.3-2.4.3-3.8v-.4c0-.5-.1-.9-.2-1.2s-.3-.7-.6-1.1l-2.4-4.1-3.4,2c-.2.1-.4,0-.5-.1l-.8-1.4c-.1-.2,0-.4.1-.5l5-3c.2-.1.3,0,.4.1l3.8,6.4c.8,1.4,1.7,2.7,2.7,3.8,1,1.1,2.1,2.2,3.3,3.4.2.2.2.3,0,.4l-1.4.9c-.2.1-.4,0-.5,0-.5-.5-1.1-1.2-1.9-2.1-.8-1-1.4-1.8-1.9-2.6h0v.8c.2,2,.1,3.6,0,4.9-.2,1.3-.8,2.3-1.7,2.9-.2.1-.3,0-.4-.1h-.2Z"/>
    <path class="st1" d="M184.4,202.7l-9.3-11.3-6.4,5.3c-.2.1-.3.1-.5,0l-1-1.3c-.1-.2-.1-.3,0-.5l7.1-5.9c.3-.3.7-.4,1-.4s.6.2.9.6l9.9,12.1c.1.2.1.3,0,.5l-1.2,1c-.2.1-.4.1-.5,0h0ZM177.7,208.1l-6.5-8c-.1-.2-.1-.4,0-.5l1.2-1c.2-.1.3-.1.5,0l6.5,8c.1.2.1.3,0,.5l-1.2,1c-.2.1-.3.1-.5,0h0Z"/>
    <path class="st1" d="M206.9,158.9c-.8.3-1.6.4-2.4,0-.8-.3-1.3-.9-1.7-1.7-.3-.8-.4-1.6,0-2.4s.9-1.3,1.6-1.7,1.6-.4,2.4,0c.8.3,1.4.9,1.7,1.7s.4,1.6,0,2.4c-.3.8-.9,1.4-1.7,1.7h0Z"/>
  </g>
  <g>
    <circle class="st0" cx="110.9" cy="118.2" r="100.8"/>
    <path class="st1" d="M66.7,27.5v-.2l.4-8.6v-1.8c0-.4-.2-1-.5-1.6l-1.6-3.4-6.7,3.1c-.2,0-.4,0-.5-.2l-2.2-4.9c0-.2,0-.4.2-.5l1.4-.6c.2,0,.3,0,.4.2l1.4,3.1,5.8-2.6c.4-.2.8-.2,1.1,0,.3,0,.6.4.7.7l1.9,4.3c.3.7.5,1.3.6,2s0,1.4,0,2.2l-.4,7.8c0,.2,0,.4-.3.5l-1.6.7h-.2,0Z"/>
    <path class="st1" d="M86.4,20c-1.9-2.5-4.1-4.8-6.5-6.9-2.4-2.2-5.2-4.2-8.2-6.2,0,0-.2,0-.2-.2h.2c0,0,2.1-.7,2.1-.7.2,0,.4,0,.6,0,3,2.2,5.7,4.4,8.1,6.6s4.4,4.4,6.1,6.6v.2s0,0-.2,0l-1.6.5c-.2,0-.4,0-.5-.2h0ZM77.1,22.7l-1.2-4.1c-.3-1.2-.5-2.3-.5-3.4s.2-2.2.7-3.3l.9-2.2,1.4,1-.5,2.2c-.2.9-.4,1.7-.3,2.4s.2,1.7.5,2.7l1.2,4.1c0,.2,0,.4-.2.4l-1.5.4c-.2,0-.4,0-.4-.2h0ZM81.8,13.3l.3-1.6c.2-.7.3-1.5.3-2.4s-.3-1.9-.6-3.1l-.6-2.1c0-.2,0-.4.3-.4l1.5-.4c.2,0,.4,0,.4.2l.6,2.1c.4,1.2.6,2.5.6,3.6s-.2,2.3-.6,3.4l-.7,1.8-1.4-1.1h-.1Z"/>
    <path class="st1" d="M99,17.8l-1.6-11.8c0-.9-.4-1.6-.9-2s-1.1-.5-1.9-.4l-5,.7c-.2,0-.4,0-.4-.3l-.2-1.6c0-.2,0-.3.3-.4l5.2-.7c1.4-.2,2.6,0,3.5.7s1.4,1.8,1.6,3.4l1.7,12.1c0,.2,0,.3-.3.4l-1.5.2c-.2,0-.4,0-.4-.3h0Z"/>
    <path class="st1" d="M107.8,15.9c-1.1-1.2-1.7-2.9-1.6-5l.2-10.6c0-.2,0-.3.3-.3h1.6c.2,0,.3,0,.3.4l-.2,10.9c0,1.4.3,2.4,1.1,3.1s1.8,1.1,3.2,1.1,2.9-.6,3.8-1.8,1.4-2.8,1.4-4.8l.2-8.4c0-.2,0-.3.4-.3h1.5c.2,0,.3,0,.3.4l-.2,8.4c0,1.6-.3,3.1-.9,4.5-.6,1.3-1.4,2.4-2.5,3.2s-2.4,1.2-4,1.1c-2.1,0-3.6-.6-4.8-1.8h-.1ZM110.2,11.8v-1.3c0-.2,0-.4.3-.5.7-.3,1.1-.8,1.4-1.5.2-.6.4-1.6.4-3V.4c0-.2.2-.3.5-.3h1.5c.2,0,.4,0,.4.4v5.1c0,1.8-.5,3.2-1.2,4.3s-1.6,1.7-2.9,2h-.4Z"/>
    <path class="st1" d="M126,12.2v-.2l3.3-6.7.2-1.3-3.7-.6c-.2,0-.3-.2-.3-.4l.3-1.6c0-.2.2-.3.4-.3l4.6.7c.4,0,.8.2.9.5s.3.6.2,1l-.3,2.1c0,.2-.1.4-.2.7l-3.1,6.2c-.1.2-.3.3-.5.2l-1.5-.2s-.2,0-.2,0h0Z"/>
    <path class="st1" d="M143,22.5v-.2l6.3-5.8c.6-.5,1-.9,1.2-1.3.3-.4.5-.9.7-1.4l1.3-3.5-6.9-2.5c-.2,0-.3-.2-.2-.5l1.8-5c0-.2.2-.3.5-.2l1.4.5c.2,0,.3.2.2.5l-1.1,3.2,6,2.2c.4,0,.7.4.8.7s.1.6,0,1l-1.6,4.4c-.3.7-.6,1.3-1,1.8s-.9,1.1-1.5,1.6l-5.7,5.3c-.1.2-.3.2-.6,0l-1.6-.6c-.1,0-.2,0-.2,0h0l.2-.2h0Z"/>
    <path class="st1" d="M155.9,26.3c-.4-1.6-.2-3.3.9-5.2l5.1-9.3c.1-.2.3-.2.4,0l1.4.8c.2,0,.2.3.1.4l-5.3,9.5c-.7,1.2-.8,2.3-.5,3.3s1.1,1.8,2.3,2.5c1.4.8,2.8.8,4.2.2s2.5-1.8,3.5-3.6l4.1-7.3c.1-.2.3-.2.5,0l1.3.7c.2,0,.2.3.1.4l-4.1,7.3c-.8,1.4-1.8,2.6-2.9,3.5s-2.4,1.5-3.7,1.6c-1.3.2-2.7,0-4-.9-1.8-1-2.9-2.3-3.4-3.9h0v.2h0ZM160,23.8v-.3l.5-.9c.1-.2.3-.3.5-.3.7,0,1.4-.2,1.9-.6s1.1-1.3,1.8-2.4l2.5-4.5c.1-.2.3-.2.5,0l1.3.7c.2,0,.3.3.2.5l-2.5,4.5c-.9,1.6-1.9,2.7-2.9,3.3-1.1.6-2.3.8-3.5.4-.1,0-.2,0-.2-.2h-.1Z"/>
    <path class="st1" d="M180.9,45.2l8-8.8c.6-.7.9-1.3.9-1.9s-.3-1.2-.9-1.7l-3.7-3.4c-.2-.2-.2-.3,0-.5l1.1-1.2c.1-.2.3-.2.5,0l3.9,3.6c1.1,1,1.6,2,1.6,3.1s-.5,2.2-1.6,3.4l-8.2,9c-.1.2-.3.2-.5,0l-1.1-1.1c-.2-.2-.2-.3,0-.5h0Z"/>
    <path class="st1" d="M185.2,49.3l1.3-1.1c.2-.1.4-.1.5,0l4.5,5.5,9.7-8-4.5-5.5c-.1-.2-.1-.4,0-.5l1.3-1.1c.2,0,.3,0,.5,0l5.1,6.2c.3.3.4.7.4,1s-.2.6-.5.9l-9.8,8.1h-1.1l1.5,1.9c.1.2.1.3,0,.5l-1.3,1.1c-.2.1-.3.1-.5,0l-7.1-8.5c-.1-.2-.1-.4,0-.5h0Z"/>
    <path class="st1" d="M194.7,61.2l8.8-5.3c.2-.1.4,0,.5.1l.8,1.3c.1.2,0,.3-.1.5l-8.8,5.3c-.2.1-.3,0-.4-.1l-.8-1.3c-.1-.2,0-.3.1-.4h-.1ZM199.1,68.5l12.5-7.6-4.3-7.1c-.1-.2,0-.4.1-.5l1.4-.9c.2-.1.3,0,.5.1l4.8,7.9c.2.4.3.7.2,1,0,.3-.3.6-.7.8l-13.4,8.1c-.2.1-.3,0-.4-.1l-.8-1.3c-.1-.2,0-.4.1-.5h0Z"/>
    <path class="st1" d="M211.3,80.9s.1-.1.2-.1l7.5-.2,1.2-.4-1.2-3.6c0-.2,0-.4.2-.4l1.6-.6c.2,0,.4,0,.4.2l1.5,4.4c.1.4.1.8,0,1.1s-.4.5-.8.6l-2,.7c-.2,0-.4.1-.7.1l-7,.2c-.2,0-.4-.1-.5-.3l-.5-1.5v-.2h.1Z"/>
    <path class="st1" d="M206.6,91l1.6-.3c.2,0,.4,0,.5.2l2.7,4.8c.4.7.8,1.3,1.1,1.7.4.4.9.6,1.5.7.7.1,1.5,0,2.6-.2l9.9-2.2c.2,0,.4,0,.4.2l.3,1.5c0,.2,0,.4-.2.4l-9.9,2.2c-2,.5-3.6.4-4.8-.2s-2.1-1.6-2.9-3l-3.1-5.4c0-.2,0-.3.2-.4h0ZM211.9,93.2c1-.4,2-.9,3-1.4l.4-.2,9.4-4.5c.2,0,.3,0,.4.2l.4,1.6c0,.2,0,.4-.2.5l-8.2,4c-1.1.5-2.2,1-3.3,1.4s-2,.8-2.8,1l-1.2-1.7c.6-.1,1.3-.4,2.3-.8h-.2,0Z"/>
    <path class="st1" d="M211.9,112.8l11.9-.9c.9,0,1.6-.3,2-.8s.6-1.1.5-1.9l-.4-5c0-.2,0-.4.3-.4h1.6c.2-.1.3,0,.4.2l.4,5.2c.1,1.5-.2,2.6-1,3.4-.7.8-1.9,1.3-3.5,1.4l-12.1.9c-.2,0-.3,0-.4-.3v-1.5c-.1-.2,0-.4.2-.4h.1Z"/>
    <path class="st1" d="M212,122.5l5.6-.9c1.3-.2,2.4-.3,3.5-.3s1.9.2,2.6.5c.8.3,1.5.8,2.2,1.3l.5.4h.1l.2-3.8c0-.2.1-.4.4-.3h1.6c.2,0,.3.2.3.5l-.4,8.7c0,.2-.1.3-.3.3h-1.6c-.2,0-.4-.2-.3-.4v-2.8c.1,0-.5-.5-.5-.5-.7-.6-1.3-1-1.9-1.2s-1.4-.4-2.4-.4-2.4,0-4,.4l-5.6.9c-.2,0-.3,0-.3-.3v-1.7c0-.2.2-.4.4-.4h-.1Z"/>
  </g>
</svg>